<svg width="131" height="27" viewBox="0 0 131 27" fill="none" xmlns="http://www.w3.org/2000/svg">
<g filter="url(#filter0_d_952_28776)">
<path d="M8.5443 9.31646V12.1266H29.6203C30 12.1266 30.3291 12 30.6076 11.7468C30.9114 11.4684 31.0633 11.1266 31.0633 10.7215C31.0633 10.3418 30.9114 10.0127 30.6076 9.73418C30.3291 9.4557 30 9.31646 29.6203 9.31646H8.5443ZM29.4684 5.67089C30.1772 5.67089 30.8354 5.81013 31.443 6.08861C32.0759 6.34177 32.6203 6.6962 33.076 7.1519C33.557 7.60759 33.9241 8.13924 34.1772 8.74683C34.4557 9.35443 34.5949 10.0127 34.5949 10.7215C34.5949 11.4304 34.4557 12.0886 34.1772 12.6962C33.9241 13.3038 33.557 13.8354 33.076 14.2911C32.6203 14.7468 32.0759 15.1139 31.443 15.3924C30.8354 15.6456 30.1772 15.7722 29.4684 15.7722H8.5443V20.4051C8.5443 20.9114 8.35443 21.3418 7.97468 21.6962C7.62025 22.0506 7.20253 22.2278 6.72152 22.2278C6.21519 22.2278 5.78481 22.0506 5.43038 21.6962C5.07595 21.3418 4.89873 20.9114 4.89873 20.4051V7.49367C4.89873 6.98734 5.07595 6.55696 5.43038 6.20253C5.78481 5.8481 6.21519 5.67089 6.72152 5.67089H29.4684ZM39.7227 21.5443C39.343 22 38.8746 22.2278 38.3176 22.2278C37.8113 22.2278 37.3809 22.0506 37.0265 21.6962C36.6721 21.3418 36.4949 20.9114 36.4949 20.4051C36.4949 19.9494 36.6214 19.5823 36.8746 19.3038L46.1025 6.88608C46.5328 6.3038 47.1025 5.83544 47.8113 5.48101C48.5202 5.10127 49.2797 4.91139 50.0898 4.91139C50.8493 4.91139 51.5708 5.07595 52.2544 5.40506C52.9379 5.73418 53.4949 6.18987 53.9252 6.77215L63.1531 19.1139C63.305 19.2911 63.4316 19.4937 63.5328 19.7215C63.6341 19.9241 63.6847 20.1519 63.6847 20.4051C63.6847 20.9114 63.5075 21.3418 63.1531 21.6962C62.7987 22.0506 62.3683 22.2278 61.8619 22.2278C61.2544 22.2278 60.7733 21.9873 60.4189 21.5063L51.5708 9.6962C51.3936 9.49367 51.1657 9.27848 50.8873 9.05063C50.6341 8.79747 50.3683 8.67089 50.0898 8.67089C49.8113 8.67089 49.5328 8.79747 49.2544 9.05063C49.0012 9.27848 48.7987 9.49367 48.6468 9.6962L39.7227 21.5443ZM90.7002 5.67089C91.2065 5.67089 91.6369 5.8481 91.9913 6.20253C92.3457 6.55696 92.5229 6.98734 92.5229 7.49367C92.5229 8 92.3457 8.43038 91.9913 8.78481C91.6369 9.13924 91.2065 9.31646 90.7002 9.31646H79.4596V20.4051C79.4596 20.9114 79.2824 21.3418 78.928 21.6962C78.5736 22.0506 78.1432 22.2278 77.6369 22.2278C77.1305 22.2278 76.7002 22.0506 76.3457 21.6962C75.9913 21.3418 75.8141 20.9114 75.8141 20.4051V9.31646H64.4217C63.966 9.26582 63.5736 9.07595 63.2445 8.74683C62.9153 8.3924 62.7508 7.97468 62.7508 7.49367C62.7508 6.98734 62.928 6.55696 63.2824 6.20253C63.6369 5.8481 64.0672 5.67089 64.5736 5.67089H90.7002ZM120.73 15.7722C121.414 16.2025 122.11 16.6709 122.819 17.1772C123.528 17.6582 124.249 18.1899 124.983 18.7722C125.262 18.9747 125.502 19.2152 125.705 19.4937C125.907 19.7468 126.009 20.0506 126.009 20.4051C126.009 20.9114 125.831 21.3418 125.477 21.6962C125.123 22.0506 124.692 22.2278 124.186 22.2278C123.755 22.2278 123.325 22.0506 122.895 21.6962C121.857 20.9367 120.793 20.2025 119.705 19.4937C118.616 18.7848 117.477 18.1519 116.287 17.5949C115.123 17.038 113.907 16.5949 112.642 16.2658C111.376 15.9367 110.059 15.7722 108.692 15.7722H101.135C100.806 15.8228 100.528 15.9747 100.3 16.2278C100.072 16.481 99.958 16.7975 99.958 17.1772V20.4051C99.958 20.9114 99.7681 21.3418 99.3883 21.6962C99.0339 22.0506 98.6162 22.2278 98.1352 22.2278C97.6289 22.2278 97.1985 22.0506 96.844 21.6962C96.4896 21.3418 96.3124 20.9114 96.3124 20.4051V16.7595C96.3124 16.1266 96.4263 15.5316 96.6542 14.9747C96.9073 14.3924 97.2365 13.8987 97.6415 13.4937C98.0466 13.0633 98.5276 12.7342 99.0846 12.5063C99.6415 12.2532 100.249 12.1266 100.907 12.1266H121.034C121.414 12.1266 121.743 12 122.021 11.7468C122.325 11.4684 122.477 11.1266 122.477 10.7215C122.477 10.3418 122.325 10.0127 122.021 9.73418C121.743 9.4557 121.414 9.31646 121.034 9.31646H98.1352C97.6289 9.31646 97.1985 9.13924 96.844 8.78481C96.4896 8.43038 96.3124 8 96.3124 7.49367C96.3124 6.98734 96.4896 6.55696 96.844 6.20253C97.1985 5.8481 97.6289 5.67089 98.1352 5.67089H120.882C121.591 5.67089 122.249 5.81013 122.857 6.08861C123.49 6.34177 124.034 6.6962 124.49 7.1519C124.971 7.60759 125.338 8.13924 125.591 8.74683C125.869 9.35443 126.009 10.0127 126.009 10.7215C126.009 11.4304 125.869 12.0886 125.591 12.6962C125.338 13.3038 124.971 13.8354 124.49 14.2911C124.034 14.7468 123.49 15.1139 122.857 15.3924C122.249 15.6456 121.591 15.7722 120.882 15.7722H120.73Z" fill="white"/>
</g>
<defs>
<filter id="filter0_d_952_28776" x="0.151892" y="0.164542" width="130.604" height="26.8101" filterUnits="userSpaceOnUse" color-interpolation-filters="sRGB">
<feFlood flood-opacity="0" result="BackgroundImageFix"/>
<feColorMatrix in="SourceAlpha" type="matrix" values="0 0 0 0 0 0 0 0 0 0 0 0 0 0 0 0 0 0 127 0" result="hardAlpha"/>
<feOffset/>
<feGaussianBlur stdDeviation="2.37342"/>
<feComposite in2="hardAlpha" operator="out"/>
<feColorMatrix type="matrix" values="0 0 0 0 1 0 0 0 0 1 0 0 0 0 1 0 0 0 0.25 0"/>
<feBlend mode="normal" in2="BackgroundImageFix" result="effect1_dropShadow_952_28776"/>
<feBlend mode="normal" in="SourceGraphic" in2="effect1_dropShadow_952_28776" result="shape"/>
</filter>
</defs>
</svg>
